<svg id="Layer_1" data-name="Layer 1" xmlns="http://www.w3.org/2000/svg" viewBox="0 0 544.3 568.21"><defs><clipPath id="clip-path" transform="translate(-19.74 -156.1)"><path d="M234 184.76 57.88 312.11a18.61 18.61 0 0 0-7.63 14.77L48 613.93a18.62 18.62 0 0 0 4.79 12.75l46.34 51.45A18.64 18.64 0 0 0 113 684.3h421.17a18.65 18.65 0 0 0 18.64-18.64V365.51a18.63 18.63 0 0 0-9.38-16.17l-289.14-165.7a18.63 18.63 0 0 0-20.29 1.12z" fill="none"/></clipPath><style>.cls-6,.cls-7{fill:#b8b6b6}</style></defs><path d="M235 184.76 58.88 312.11a18.61 18.61 0 0 0-7.63 14.77L49 613.93a18.62 18.62 0 0 0 4.79 12.75l46.34 51.45A18.64 18.64 0 0 0 114 684.3h421.17a18.65 18.65 0 0 0 18.64-18.64V365.51a18.63 18.63 0 0 0-9.38-16.17l-289.14-165.7a18.63 18.63 0 0 0-20.29 1.12z" transform="translate(-19.74 -156.1)" fill="#b8b6b6"/><path d="M241.07 159.62 36.72 312.7a8.24 8.24 0 0 0-.79 12.5L96.64 384a10.14 10.14 0 0 0 13.22.76l197.88-151.69L553.1 363.69a5 5 0 0 0 5.89-.91l3.64-3.72a5 5 0 0 0 0-6.93l-59.57-61.76a36.19 36.19 0 0 0-8.94-6.76L259.94 158.19a17.6 17.6 0 0 0-18.87 1.43z" transform="translate(-19.74 -156.1)" fill="#b8b6b6"/></svg>